<svg width="93" height="75" viewBox="0 0 93 75" fill="none" xmlns="http://www.w3.org/2000/svg">
<path d="M62.8359 60.4789L57.114 54.752C57.0036 54.6452 56.9155 54.5176 56.855 54.3764C56.7944 54.2353 56.7625 54.0834 56.7612 53.9298C56.7598 53.7762 56.7891 53.6239 56.8472 53.4817C56.9053 53.3395 56.9911 53.2103 57.0997 53.1017C57.2082 52.9931 57.3373 52.9071 57.4793 52.849C57.6214 52.7908 57.7736 52.7615 57.9271 52.7629C58.0806 52.7642 58.2323 52.7961 58.3733 52.8567C58.5143 52.9174 58.6419 53.0055 58.7485 53.116L65.2876 59.6609C65.5043 59.8779 65.626 60.1721 65.626 60.4789C65.626 60.7857 65.5043 61.0799 65.2876 61.2969L58.7485 67.8418C58.6419 67.9523 58.5143 68.0404 58.3733 68.101C58.2323 68.1617 58.0806 68.1936 57.9271 68.1949C57.7736 68.1963 57.6214 68.167 57.4793 68.1088C57.3373 68.0506 57.2082 67.9647 57.0997 67.8561C56.9911 67.7475 56.9053 67.6183 56.8472 67.4761C56.7891 67.3339 56.7598 67.1816 56.7612 67.028C56.7625 66.8743 56.7944 66.7225 56.855 66.5814C56.9155 66.4402 57.0036 66.3125 57.114 66.2058L62.8359 60.4789ZM67.1787 65.5035H76.4262C76.7327 65.5035 77.0268 65.6254 77.2435 65.8424C77.4603 66.0594 77.5821 66.3537 77.5821 66.6605C77.5821 66.9673 77.4603 67.2616 77.2435 67.4786C77.0268 67.6956 76.7327 67.8175 76.4262 67.8175H67.1787C66.8721 67.8175 66.5781 67.6956 66.3613 67.4786C66.1446 67.2616 66.0228 66.9673 66.0228 66.6605C66.0228 66.3537 66.1446 66.0594 66.3613 65.8424C66.5781 65.6254 66.8721 65.5035 67.1787 65.5035Z" fill="#CBD5E1"/>
<path d="M24.8777 17.7984C24.3748 17.4649 23.7834 17.2903 23.1802 17.2972C22.577 17.3041 21.9898 17.4921 21.4947 17.837L6.3423 28.4038C5.53315 28.9669 5.05151 29.8886 5.05151 30.8759V42.2584C5.05151 43.2707 5.56012 44.2136 6.40395 44.7709L21.8048 54.9618C22.2972 55.2876 22.8743 55.4613 23.4646 55.4613C24.0548 55.4613 24.632 55.2876 25.1243 54.9618L40.8315 44.5762C41.6753 44.017 42.182 43.0721 42.182 42.0617V30.8778C42.182 29.8674 41.6753 28.9245 40.8334 28.3653L24.8777 17.7984ZM36.6104 30.1258L30.8038 34.0266L25.3593 30.0641L25.3246 22.27L36.6085 30.1258H36.6104ZM21.3868 22.2778V29.9079L15.8055 33.8107L10.2436 30.0756L21.3868 22.2778ZM8.71582 33.8338L12.3185 36.2499L8.71582 38.7721V33.8357V33.8338ZM21.4792 50.0948L10.2455 42.5573L15.8576 38.6294L21.4831 42.4049V50.0987L21.4792 50.0948ZM19.3504 36.1863L22.9877 33.641L27.2262 36.4273L23.4694 38.9533L19.3504 36.1863ZM25.4518 50.0948V42.4011L30.8269 38.7952L36.6123 42.6035L25.4518 50.0948ZM38.2152 38.9013L34.4006 36.3945L38.2152 33.8319V38.9032V38.9013Z" fill="#F1F5F9"/>
<path d="M78.7268 24.6245C78.318 24.6245 77.926 24.4619 77.637 24.1726C77.3479 23.8834 77.1856 23.491 77.1856 23.0819C77.1856 22.6727 77.3479 22.2804 77.637 21.9911C77.926 21.7018 78.318 21.5393 78.7268 21.5393C80.1185 21.5386 81.484 21.1608 82.6784 20.4459C83.8729 19.7309 84.8515 18.7056 85.5106 17.4788C86.1696 16.2519 86.4844 14.8694 86.4216 13.4779C86.3587 12.0864 85.9206 10.7379 85.1536 9.57555C84.3866 8.41324 83.3195 7.4805 82.0655 6.87637C80.8115 6.27224 79.4175 6.01927 78.0314 6.14432C76.6453 6.26936 75.319 6.76777 74.1931 7.5866C73.0673 8.40543 72.184 9.51414 71.6371 10.795L70.5274 13.3958L67.8425 12.5135C67.2072 12.3052 66.5343 12.2373 65.8702 12.3145C65.2061 12.3917 64.5667 12.6121 63.9959 12.9605C63.4251 13.3089 62.9367 13.7771 62.5641 14.3327C62.1916 14.8883 61.9439 15.5182 61.8381 16.1789C61.7322 16.8396 61.7708 17.5154 61.9511 18.1597C62.1315 18.8041 62.4493 19.4016 62.8826 19.9111C63.3159 20.4207 63.8545 20.8301 64.4612 21.1112C65.0679 21.3922 65.7283 21.5383 66.3968 21.5393H69.4793C69.8881 21.5393 70.2801 21.7018 70.5692 21.9911C70.8582 22.2804 71.0206 22.6727 71.0206 23.0819C71.0206 23.491 70.8582 23.8834 70.5692 24.1726C70.2801 24.4619 69.8881 24.6245 69.4793 24.6245H66.3968C65.2822 24.6238 64.1809 24.3812 63.169 23.9133C62.1572 23.4454 61.2587 22.7633 60.5358 21.9141C59.8128 21.065 59.2825 20.069 58.9814 18.9948C58.6803 17.9206 58.6156 16.7938 58.7918 15.6922C58.968 14.5906 59.3809 13.5403 60.002 12.6139C60.623 11.6875 61.4375 10.9069 62.3892 10.3261C63.3409 9.74527 64.4072 9.378 65.5144 9.24962C66.6217 9.12124 67.7436 9.23481 68.8027 9.5825C69.7808 7.29578 71.5174 5.417 73.7192 4.2635C75.9211 3.11 78.4532 2.75247 80.8879 3.25131C83.3227 3.75015 85.5108 5.07478 87.0827 7.00146C88.6546 8.92814 89.5139 11.3388 89.5155 13.8262C89.5155 16.6901 88.3788 19.4367 86.3556 21.4617C84.3323 23.4868 81.5881 24.6245 78.7268 24.6245ZM75.1973 20.0954C75.9973 20.4008 76.4103 21.331 76.119 22.1717L74.0106 28.265C73.7178 29.1057 72.8346 29.5392 72.0347 29.2322C71.2348 28.9268 70.8233 27.9966 71.1146 27.1559L73.223 21.0626C73.5128 20.2219 74.3974 19.7884 75.1973 20.0954ZM77.7127 26.1871C78.5126 26.4926 78.9241 27.4228 78.6328 28.2635L76.5244 34.3568C76.2346 35.1975 75.3499 35.631 74.55 35.324C73.7501 35.0186 73.3371 34.0884 73.6284 33.2476L75.7368 27.1543C76.0296 26.3136 76.9128 25.8802 77.7127 26.1871ZM72.5618 26.0884H77.1856C78.0363 26.0884 78.7268 26.8134 78.7268 27.7097C78.7268 28.6044 78.0363 29.3294 77.1856 29.3294H72.5618C71.7111 29.3294 71.0206 28.6044 71.0206 27.7097C71.0206 26.815 71.7111 26.0899 72.5618 26.0899V26.0884Z" fill="#E2E8F0"/>
</svg>
