<svg width="155" height="156" viewBox="0 0 155 156" fill="none" xmlns="http://www.w3.org/2000/svg">
<path d="M152.886 143.552L143.023 143.552C142.828 143.552 142.67 143.71 142.67 143.904L142.67 153.768C142.67 153.963 142.828 154.12 143.023 154.12L152.886 154.12C153.081 154.12 153.239 153.963 153.239 153.768L153.239 143.904C153.239 143.71 153.081 143.552 152.886 143.552Z" stroke="white" stroke-width="1.32102" stroke-linecap="round" stroke-linejoin="round"/>
<path d="M152.886 115.37L143.023 115.37C142.828 115.37 142.67 115.528 142.67 115.723L142.67 125.586C142.67 125.781 142.828 125.938 143.023 125.938L152.886 125.938C153.081 125.938 153.239 125.781 153.239 125.586L153.239 115.723C153.239 115.528 153.081 115.37 152.886 115.37Z" stroke="white" stroke-width="1.32102" stroke-linecap="round" stroke-linejoin="round"/>
<path d="M152.886 87.1889L143.023 87.1889C142.828 87.1889 142.67 87.3466 142.67 87.5412L142.67 97.4048C142.67 97.5994 142.828 97.7571 143.023 97.7571L152.886 97.7571C153.081 97.7571 153.239 97.5994 153.239 97.4048L153.239 87.5412C153.239 87.3466 153.081 87.1889 152.886 87.1889Z" stroke="white" stroke-width="1.32102" stroke-linecap="round" stroke-linejoin="round"/>
<path d="M152.886 59.0068L143.023 59.0068C142.828 59.0068 142.67 59.1645 142.67 59.359L142.67 69.2227C142.67 69.4172 142.828 69.575 143.023 69.575L152.886 69.575C153.081 69.575 153.239 69.4172 153.239 69.2227L153.239 59.359C153.239 59.1645 153.081 59.0068 152.886 59.0068Z" stroke="white" stroke-width="1.32102" stroke-linecap="round" stroke-linejoin="round"/>
<path d="M152.886 30.8249L143.023 30.8249C142.828 30.8249 142.67 30.9826 142.67 31.1772L142.67 41.0408C142.67 41.2353 142.828 41.3931 143.023 41.3931L152.886 41.3931C153.081 41.3931 153.239 41.2353 153.239 41.0408L153.239 31.1772C153.239 30.9826 153.081 30.8249 152.886 30.8249Z" stroke="white" stroke-width="1.32102" stroke-linecap="round" stroke-linejoin="round"/>
<path d="M152.886 2.64324L143.023 2.64324C142.828 2.64324 142.67 2.80094 142.67 2.99552L142.67 12.8592C142.67 13.0537 142.828 13.2114 143.023 13.2114L152.886 13.2114C153.081 13.2114 153.239 13.0537 153.239 12.8592L153.239 2.99552C153.239 2.80094 153.081 2.64324 152.886 2.64324Z" stroke="white" stroke-width="1.32102" stroke-linecap="round" stroke-linejoin="round"/>
<path d="M124.704 143.552L114.841 143.552C114.646 143.552 114.489 143.71 114.489 143.904L114.489 153.768C114.489 153.963 114.646 154.12 114.841 154.12L124.704 154.12C124.899 154.12 125.057 153.963 125.057 153.768L125.057 143.904C125.057 143.71 124.899 143.552 124.704 143.552Z" stroke="white" stroke-width="1.32102" stroke-linecap="round" stroke-linejoin="round"/>
<path d="M124.704 115.37L114.841 115.37C114.646 115.37 114.489 115.528 114.489 115.723L114.489 125.586C114.489 125.781 114.646 125.938 114.841 125.938L124.704 125.938C124.899 125.938 125.057 125.781 125.057 125.586L125.057 115.723C125.057 115.528 124.899 115.37 124.704 115.37Z" stroke="white" stroke-width="1.32102" stroke-linecap="round" stroke-linejoin="round"/>
<path d="M124.704 87.1889L114.841 87.1889C114.646 87.1889 114.489 87.3466 114.489 87.5412L114.489 97.4048C114.489 97.5994 114.646 97.7571 114.841 97.7571L124.704 97.7571C124.899 97.7571 125.057 97.5994 125.057 97.4048L125.057 87.5412C125.057 87.3466 124.899 87.1889 124.704 87.1889Z" stroke="white" stroke-width="1.32102" stroke-linecap="round" stroke-linejoin="round"/>
<path d="M124.704 59.0068L114.841 59.0068C114.646 59.0068 114.489 59.1645 114.489 59.359L114.489 69.2227C114.489 69.4172 114.646 69.575 114.841 69.575L124.704 69.575C124.899 69.575 125.057 69.4172 125.057 69.2227L125.057 59.359C125.057 59.1645 124.899 59.0068 124.704 59.0068Z" stroke="white" stroke-width="1.32102" stroke-linecap="round" stroke-linejoin="round"/>
<path d="M124.704 30.8249L114.841 30.8249C114.646 30.8249 114.489 30.9826 114.489 31.1772L114.489 41.0408C114.489 41.2353 114.646 41.3931 114.841 41.3931L124.704 41.3931C124.899 41.3931 125.057 41.2353 125.057 41.0408L125.057 31.1772C125.057 30.9826 124.899 30.8249 124.704 30.8249Z" stroke="white" stroke-width="1.32102" stroke-linecap="round" stroke-linejoin="round"/>
<path d="M124.704 2.64324L114.841 2.64324C114.646 2.64324 114.489 2.80094 114.489 2.99552L114.489 12.8592C114.489 13.0537 114.646 13.2114 114.841 13.2114L124.704 13.2114C124.899 13.2114 125.057 13.0537 125.057 12.8592L125.057 2.99552C125.057 2.80094 124.899 2.64324 124.704 2.64324Z" stroke="white" stroke-width="1.32102" stroke-linecap="round" stroke-linejoin="round"/>
<path d="M96.5227 143.552L86.6591 143.552C86.4645 143.552 86.3068 143.71 86.3068 143.904L86.3068 153.768C86.3068 153.963 86.4645 154.12 86.6591 154.12L96.5227 154.12C96.7173 154.12 96.875 153.963 96.875 153.768L96.875 143.904C96.875 143.71 96.7173 143.552 96.5227 143.552Z" stroke="white" stroke-width="1.32102" stroke-linecap="round" stroke-linejoin="round"/>
<path d="M96.5227 115.37L86.6591 115.37C86.4645 115.37 86.3068 115.528 86.3068 115.723L86.3068 125.586C86.3068 125.781 86.4645 125.938 86.6591 125.938L96.5227 125.938C96.7173 125.938 96.875 125.781 96.875 125.586L96.875 115.723C96.875 115.528 96.7173 115.37 96.5227 115.37Z" stroke="white" stroke-width="1.32102" stroke-linecap="round" stroke-linejoin="round"/>
<path d="M96.5227 87.1889L86.6591 87.1889C86.4645 87.1889 86.3068 87.3466 86.3068 87.5412L86.3068 97.4048C86.3068 97.5994 86.4645 97.7571 86.6591 97.7571L96.5227 97.7571C96.7173 97.7571 96.875 97.5994 96.875 97.4048L96.875 87.5412C96.875 87.3466 96.7173 87.1889 96.5227 87.1889Z" stroke="white" stroke-width="1.32102" stroke-linecap="round" stroke-linejoin="round"/>
<path d="M96.5227 59.0068L86.6591 59.0068C86.4645 59.0068 86.3068 59.1645 86.3068 59.359L86.3068 69.2227C86.3068 69.4172 86.4645 69.575 86.6591 69.575L96.5227 69.575C96.7173 69.575 96.875 69.4172 96.875 69.2227L96.875 59.359C96.875 59.1645 96.7173 59.0068 96.5227 59.0068Z" stroke="white" stroke-width="1.32102" stroke-linecap="round" stroke-linejoin="round"/>
<path d="M96.5227 30.8249L86.6591 30.8249C86.4645 30.8249 86.3068 30.9826 86.3068 31.1772L86.3068 41.0408C86.3068 41.2353 86.4645 41.3931 86.6591 41.3931L96.5227 41.3931C96.7173 41.3931 96.875 41.2353 96.875 41.0408L96.875 31.1772C96.875 30.9826 96.7173 30.8249 96.5227 30.8249Z" stroke="white" stroke-width="1.32102" stroke-linecap="round" stroke-linejoin="round"/>
<path d="M96.5227 2.64324L86.6591 2.64324C86.4645 2.64324 86.3068 2.80094 86.3068 2.99552L86.3068 12.8592C86.3068 13.0537 86.4645 13.2114 86.6591 13.2114L96.5227 13.2114C96.7173 13.2114 96.875 13.0537 96.875 12.8592L96.875 2.99552C96.875 2.80094 96.7173 2.64324 96.5227 2.64324Z" stroke="white" stroke-width="1.32102" stroke-linecap="round" stroke-linejoin="round"/>
<path d="M68.341 143.552L58.4773 143.552C58.2828 143.552 58.1251 143.71 58.1251 143.904L58.1251 153.768C58.1251 153.963 58.2828 154.12 58.4773 154.12L68.341 154.12C68.5355 154.12 68.6932 153.963 68.6932 153.768L68.6932 143.904C68.6932 143.71 68.5355 143.552 68.341 143.552Z" stroke="white" stroke-width="1.32102" stroke-linecap="round" stroke-linejoin="round"/>
<path d="M68.341 115.37L58.4773 115.37C58.2828 115.37 58.1251 115.528 58.1251 115.723L58.1251 125.586C58.1251 125.781 58.2828 125.938 58.4773 125.938L68.341 125.938C68.5355 125.938 68.6932 125.781 68.6932 125.586L68.6932 115.723C68.6932 115.528 68.5355 115.37 68.341 115.37Z" stroke="white" stroke-width="1.32102" stroke-linecap="round" stroke-linejoin="round"/>
<path d="M68.341 87.1889L58.4773 87.1889C58.2828 87.1889 58.1251 87.3466 58.1251 87.5412L58.1251 97.4048C58.1251 97.5994 58.2828 97.7571 58.4773 97.7571L68.341 97.7571C68.5355 97.7571 68.6932 97.5994 68.6932 97.4048L68.6932 87.5412C68.6932 87.3466 68.5355 87.1889 68.341 87.1889Z" stroke="white" stroke-width="1.32102" stroke-linecap="round" stroke-linejoin="round"/>
<path d="M68.341 59.0068L58.4773 59.0068C58.2828 59.0068 58.1251 59.1645 58.1251 59.359L58.1251 69.2227C58.1251 69.4172 58.2828 69.575 58.4773 69.575L68.341 69.575C68.5355 69.575 68.6932 69.4172 68.6932 69.2227L68.6932 59.359C68.6932 59.1645 68.5355 59.0068 68.341 59.0068Z" stroke="white" stroke-width="1.32102" stroke-linecap="round" stroke-linejoin="round"/>
<path d="M68.341 30.8249L58.4773 30.8249C58.2828 30.8249 58.1251 30.9826 58.1251 31.1772L58.1251 41.0408C58.1251 41.2353 58.2828 41.3931 58.4773 41.3931L68.341 41.3931C68.5355 41.3931 68.6932 41.2353 68.6932 41.0408L68.6932 31.1772C68.6932 30.9826 68.5355 30.8249 68.341 30.8249Z" stroke="white" stroke-width="1.32102" stroke-linecap="round" stroke-linejoin="round"/>
<path d="M68.341 2.64324L58.4773 2.64324C58.2828 2.64324 58.1251 2.80094 58.1251 2.99552L58.1251 12.8592C58.1251 13.0537 58.2828 13.2114 58.4773 13.2114L68.341 13.2114C68.5355 13.2114 68.6932 13.0537 68.6932 12.8592L68.6932 2.99552C68.6932 2.80094 68.5355 2.64324 68.341 2.64324Z" stroke="white" stroke-width="1.32102" stroke-linecap="round" stroke-linejoin="round"/>
<path d="M40.1591 143.552L30.2954 143.552C30.1009 143.552 29.9432 143.71 29.9432 143.904L29.9432 153.768C29.9432 153.963 30.1009 154.12 30.2954 154.12L40.1591 154.12C40.3536 154.12 40.5114 153.963 40.5114 153.768L40.5114 143.904C40.5114 143.71 40.3536 143.552 40.1591 143.552Z" stroke="white" stroke-width="1.32102" stroke-linecap="round" stroke-linejoin="round"/>
<path d="M40.1591 115.37L30.2954 115.37C30.1009 115.37 29.9432 115.528 29.9432 115.723L29.9432 125.586C29.9432 125.781 30.1009 125.938 30.2954 125.938L40.1591 125.938C40.3536 125.938 40.5114 125.781 40.5114 125.586L40.5114 115.723C40.5114 115.528 40.3536 115.37 40.1591 115.37Z" stroke="white" stroke-width="1.32102" stroke-linecap="round" stroke-linejoin="round"/>
<path d="M40.1591 87.1889L30.2954 87.1889C30.1009 87.1889 29.9432 87.3466 29.9432 87.5412L29.9432 97.4048C29.9432 97.5994 30.1009 97.7571 30.2954 97.7571L40.1591 97.7571C40.3536 97.7571 40.5114 97.5994 40.5114 97.4048L40.5114 87.5412C40.5114 87.3466 40.3536 87.1889 40.1591 87.1889Z" stroke="white" stroke-width="1.32102" stroke-linecap="round" stroke-linejoin="round"/>
<path d="M40.1591 59.0068L30.2954 59.0068C30.1009 59.0068 29.9432 59.1645 29.9432 59.359L29.9432 69.2227C29.9432 69.4172 30.1009 69.575 30.2954 69.575L40.1591 69.575C40.3536 69.575 40.5114 69.4172 40.5114 69.2227L40.5114 59.359C40.5114 59.1645 40.3536 59.0068 40.1591 59.0068Z" stroke="white" stroke-width="1.32102" stroke-linecap="round" stroke-linejoin="round"/>
<path d="M40.1591 30.8249L30.2954 30.8249C30.1009 30.8249 29.9432 30.9826 29.9432 31.1772L29.9432 41.0408C29.9432 41.2353 30.1009 41.3931 30.2954 41.3931L40.1591 41.3931C40.3536 41.3931 40.5114 41.2353 40.5114 41.0408L40.5114 31.1772C40.5114 30.9826 40.3536 30.8249 40.1591 30.8249Z" stroke="white" stroke-width="1.32102" stroke-linecap="round" stroke-linejoin="round"/>
<path d="M40.1591 2.64324L30.2954 2.64324C30.1009 2.64324 29.9432 2.80094 29.9432 2.99552L29.9432 12.8592C29.9432 13.0537 30.1009 13.2114 30.2954 13.2114L40.1591 13.2114C40.3536 13.2114 40.5114 13.0537 40.5114 12.8592L40.5114 2.99552C40.5114 2.80094 40.3536 2.64324 40.1591 2.64324Z" stroke="white" stroke-width="1.32102" stroke-linecap="round" stroke-linejoin="round"/>
<path d="M11.9773 143.552L2.11368 143.552C1.91911 143.552 1.76141 143.71 1.76141 143.904L1.76141 153.768C1.76141 153.963 1.91911 154.12 2.11368 154.12L11.9773 154.12C12.1719 154.12 12.3296 153.963 12.3296 153.768L12.3296 143.904C12.3296 143.71 12.1719 143.552 11.9773 143.552Z" stroke="white" stroke-width="1.32102" stroke-linecap="round" stroke-linejoin="round"/>
<path d="M11.9773 115.37L2.11368 115.37C1.91911 115.37 1.76141 115.528 1.76141 115.723L1.76141 125.586C1.76141 125.781 1.91911 125.938 2.11368 125.938L11.9773 125.938C12.1719 125.938 12.3296 125.781 12.3296 125.586L12.3296 115.723C12.3296 115.528 12.1719 115.37 11.9773 115.37Z" stroke="white" stroke-width="1.32102" stroke-linecap="round" stroke-linejoin="round"/>
<path d="M11.9773 87.1889L2.11368 87.1889C1.91911 87.1889 1.76141 87.3466 1.76141 87.5412L1.76141 97.4048C1.76141 97.5994 1.91911 97.7571 2.11368 97.7571L11.9773 97.7571C12.1719 97.7571 12.3296 97.5994 12.3296 97.4048L12.3296 87.5412C12.3296 87.3466 12.1719 87.1889 11.9773 87.1889Z" stroke="white" stroke-width="1.32102" stroke-linecap="round" stroke-linejoin="round"/>
<path d="M11.9773 59.0068L2.11368 59.0068C1.91911 59.0068 1.76141 59.1645 1.76141 59.359L1.76141 69.2227C1.76141 69.4172 1.91911 69.575 2.11368 69.575L11.9773 69.575C12.1719 69.575 12.3296 69.4172 12.3296 69.2227L12.3296 59.359C12.3296 59.1645 12.1719 59.0068 11.9773 59.0068Z" stroke="white" stroke-width="1.32102" stroke-linecap="round" stroke-linejoin="round"/>
<path d="M11.9773 30.8249L2.11368 30.8249C1.91911 30.8249 1.76141 30.9826 1.76141 31.1772L1.76141 41.0408C1.76141 41.2353 1.91911 41.3931 2.11368 41.3931L11.9773 41.3931C12.1719 41.3931 12.3296 41.2353 12.3296 41.0408L12.3296 31.1772C12.3296 30.9826 12.1719 30.8249 11.9773 30.8249Z" stroke="white" stroke-width="1.32102" stroke-linecap="round" stroke-linejoin="round"/>
<path d="M11.9773 2.64324L2.11368 2.64324C1.91911 2.64324 1.76141 2.80094 1.76141 2.99552L1.76141 12.8592C1.76141 13.0537 1.91911 13.2114 2.11368 13.2114L11.9773 13.2114C12.1719 13.2114 12.3296 13.0537 12.3296 12.8592L12.3296 2.99552C12.3296 2.80094 12.1719 2.64324 11.9773 2.64324Z" stroke="white" stroke-width="1.32102" stroke-linecap="round" stroke-linejoin="round"/>
</svg>
